<?xml version="1.0" encoding="UTF-8"?>
<svg xmlns="http://www.w3.org/2000/svg" xmlns:xlink="http://www.w3.org/1999/xlink" viewBox="0 0 80 80" width="80px" height="80px">
<g id="surface62196165">
<path style=" stroke:none;fill-rule:nonzero;fill:rgb(100%,100%,100%);fill-opacity:1;" d="M 40 7 C 21.785156 7 7 21.785156 7 40 C 7 56.535156 19.191406 70.207031 35.066406 72.59375 L 36.214844 72.765625 L 36.214844 48.480469 L 28.296875 48.480469 L 28.296875 42.066406 L 36.214844 42.066406 L 36.214844 36.472656 C 36.214844 32 37.296875 28.957031 39.15625 27.019531 C 41.019531 25.085938 43.757812 24.136719 47.433594 24.136719 C 50.582031 24.136719 51.960938 24.339844 52.996094 24.472656 L 52.996094 29.875 L 48.742188 29.875 C 46.792969 29.875 45.273438 30.917969 44.445312 32.367188 C 43.617188 33.816406 43.332031 35.613281 43.332031 37.46875 L 43.332031 42.066406 L 52.75 42.066406 L 51.757812 48.480469 L 43.335938 48.480469 L 43.335938 72.816406 L 44.46875 72.664062 C 60.574219 70.480469 73 56.695312 73 40 C 73 21.785156 58.214844 7 40 7 Z M 40 9 C 57.132812 9 71 22.867188 71 40 C 71 55.296875 59.894531 67.878906 45.335938 70.417969 L 45.335938 67.480469 C 45.859375 67.445312 46.269531 67.007812 46.269531 66.480469 C 46.265625 65.953125 45.859375 65.519531 45.335938 65.484375 L 45.335938 50.480469 L 53.472656 50.480469 L 55.082031 40.066406 L 45.332031 40.066406 L 45.332031 37.46875 C 45.332031 35.832031 45.621094 34.335938 46.179688 33.359375 C 46.738281 32.386719 47.425781 31.875 48.742188 31.875 L 54.996094 31.875 L 54.996094 22.660156 L 54.128906 22.542969 C 53.214844 22.421875 51.171875 22.136719 47.433594 22.136719 C 43.40625 22.136719 40.039062 23.222656 37.714844 25.636719 C 35.394531 28.050781 34.214844 31.675781 34.214844 36.472656 L 34.214844 40.066406 L 26.296875 40.066406 L 26.296875 50.480469 L 34.214844 50.480469 L 34.214844 65.625 C 33.917969 65.804688 33.734375 66.128906 33.730469 66.480469 C 33.734375 66.832031 33.917969 67.15625 34.214844 67.335938 L 34.214844 70.332031 C 19.878906 67.609375 9 55.140625 9 40 C 9 22.867188 22.867188 9 40 9 Z M 40 12 C 39.449219 12 39 12.449219 39 13 C 39 13.550781 39.449219 14 40 14 C 40.550781 14 41 13.550781 41 13 C 41 12.449219 40.550781 12 40 12 Z M 34.734375 12.519531 C 34.179688 12.519531 33.734375 12.96875 33.734375 13.519531 C 33.734375 14.070312 34.179688 14.519531 34.734375 14.519531 C 35.285156 14.519531 35.734375 14.070312 35.734375 13.519531 C 35.734375 12.96875 35.285156 12.519531 34.734375 12.519531 Z M 45.265625 12.519531 C 44.714844 12.519531 44.265625 12.96875 44.265625 13.519531 C 44.265625 14.070312 44.714844 14.519531 45.265625 14.519531 C 45.820312 14.519531 46.265625 14.070312 46.265625 13.519531 C 46.265625 12.96875 45.820312 12.519531 45.265625 12.519531 Z M 29.667969 14.054688 C 29.117188 14.054688 28.667969 14.503906 28.667969 15.054688 C 28.667969 15.605469 29.117188 16.054688 29.667969 16.054688 C 30.21875 16.054688 30.667969 15.605469 30.667969 15.054688 C 30.667969 14.503906 30.21875 14.054688 29.667969 14.054688 Z M 50.332031 14.054688 C 49.78125 14.054688 49.332031 14.503906 49.332031 15.054688 C 49.332031 15.605469 49.78125 16.054688 50.332031 16.054688 C 50.882812 16.054688 51.332031 15.605469 51.332031 15.054688 C 51.332031 14.503906 50.882812 14.054688 50.332031 14.054688 Z M 25 16.550781 C 24.449219 16.550781 24 17 24 17.550781 C 24 18.101562 24.449219 18.550781 25 18.550781 C 25.550781 18.550781 26 18.101562 26 17.550781 C 26 17 25.550781 16.550781 25 16.550781 Z M 55 16.550781 C 54.449219 16.550781 54 17 54 17.550781 C 54 18.101562 54.449219 18.550781 55 18.550781 C 55.550781 18.550781 56 18.101562 56 17.550781 C 56 17 55.550781 16.550781 55 16.550781 Z M 20.910156 19.910156 C 20.355469 19.910156 19.910156 20.355469 19.910156 20.910156 C 19.910156 21.460938 20.355469 21.910156 20.910156 21.910156 C 21.460938 21.910156 21.910156 21.460938 21.910156 20.910156 C 21.910156 20.355469 21.460938 19.910156 20.910156 19.910156 Z M 59.089844 19.910156 C 58.539062 19.910156 58.089844 20.355469 58.089844 20.910156 C 58.089844 21.460938 58.539062 21.910156 59.089844 21.910156 C 59.644531 21.910156 60.089844 21.460938 60.089844 20.910156 C 60.089844 20.355469 59.644531 19.910156 59.089844 19.910156 Z M 17.550781 24 C 17 24 16.550781 24.449219 16.550781 25 C 16.550781 25.550781 17 26 17.550781 26 C 18.101562 26 18.550781 25.550781 18.550781 25 C 18.550781 24.449219 18.101562 24 17.550781 24 Z M 62.449219 24 C 61.898438 24 61.449219 24.449219 61.449219 25 C 61.449219 25.550781 61.898438 26 62.449219 26 C 63 26 63.449219 25.550781 63.449219 25 C 63.449219 24.449219 63 24 62.449219 24 Z M 15.054688 28.667969 C 14.503906 28.667969 14.054688 29.117188 14.054688 29.667969 C 14.054688 30.21875 14.503906 30.667969 15.054688 30.667969 C 15.605469 30.667969 16.054688 30.21875 16.054688 29.667969 C 16.054688 29.117188 15.605469 28.667969 15.054688 28.667969 Z M 64.945312 28.667969 C 64.394531 28.667969 63.945312 29.117188 63.945312 29.667969 C 63.945312 30.21875 64.394531 30.667969 64.945312 30.667969 C 65.496094 30.667969 65.945312 30.21875 65.945312 29.667969 C 65.945312 29.117188 65.496094 28.667969 64.945312 28.667969 Z M 13.519531 33.734375 C 12.96875 33.734375 12.519531 34.179688 12.519531 34.734375 C 12.519531 35.285156 12.96875 35.734375 13.519531 35.734375 C 14.070312 35.734375 14.519531 35.285156 14.519531 34.734375 C 14.519531 34.179688 14.070312 33.734375 13.519531 33.734375 Z M 66.480469 33.734375 C 65.929688 33.734375 65.480469 34.179688 65.480469 34.734375 C 65.480469 35.285156 65.929688 35.734375 66.480469 35.734375 C 67.03125 35.734375 67.480469 35.285156 67.480469 34.734375 C 67.480469 34.179688 67.03125 33.734375 66.480469 33.734375 Z M 13 39 C 12.449219 39 12 39.449219 12 40 C 12 40.550781 12.449219 41 13 41 C 13.550781 41 14 40.550781 14 40 C 14 39.449219 13.550781 39 13 39 Z M 67 39 C 66.449219 39 66 39.449219 66 40 C 66 40.550781 66.449219 41 67 41 C 67.550781 41 68 40.550781 68 40 C 68 39.449219 67.550781 39 67 39 Z M 13.519531 44.265625 C 12.96875 44.265625 12.519531 44.714844 12.519531 45.265625 C 12.519531 45.820312 12.96875 46.265625 13.519531 46.265625 C 14.070312 46.265625 14.519531 45.820312 14.519531 45.265625 C 14.519531 44.714844 14.070312 44.265625 13.519531 44.265625 Z M 66.480469 44.265625 C 65.929688 44.265625 65.480469 44.714844 65.480469 45.265625 C 65.480469 45.820312 65.929688 46.265625 66.480469 46.265625 C 67.03125 46.265625 67.480469 45.820312 67.480469 45.265625 C 67.480469 44.714844 67.03125 44.265625 66.480469 44.265625 Z M 15.054688 49.332031 C 14.503906 49.332031 14.054688 49.78125 14.054688 50.332031 C 14.054688 50.882812 14.503906 51.332031 15.054688 51.332031 C 15.605469 51.332031 16.054688 50.882812 16.054688 50.332031 C 16.054688 49.78125 15.605469 49.332031 15.054688 49.332031 Z M 64.945312 49.332031 C 64.394531 49.332031 63.945312 49.78125 63.945312 50.332031 C 63.945312 50.882812 64.394531 51.332031 64.945312 51.332031 C 65.496094 51.332031 65.945312 50.882812 65.945312 50.332031 C 65.945312 49.78125 65.496094 49.332031 64.945312 49.332031 Z M 17.550781 54 C 17 54 16.550781 54.449219 16.550781 55 C 16.550781 55.550781 17 56 17.550781 56 C 18.101562 56 18.550781 55.550781 18.550781 55 C 18.550781 54.449219 18.101562 54 17.550781 54 Z M 62.449219 54 C 61.898438 54 61.449219 54.449219 61.449219 55 C 61.449219 55.550781 61.898438 56 62.449219 56 C 63 56 63.449219 55.550781 63.449219 55 C 63.449219 54.449219 63 54 62.449219 54 Z M 20.910156 58.089844 C 20.355469 58.089844 19.910156 58.539062 19.910156 59.089844 C 19.910156 59.644531 20.355469 60.089844 20.910156 60.089844 C 21.460938 60.089844 21.910156 59.644531 21.910156 59.089844 C 21.910156 58.539062 21.460938 58.089844 20.910156 58.089844 Z M 59.089844 58.089844 C 58.539062 58.089844 58.089844 58.539062 58.089844 59.089844 C 58.089844 59.644531 58.539062 60.089844 59.089844 60.089844 C 59.644531 60.089844 60.089844 59.644531 60.089844 59.089844 C 60.089844 58.539062 59.644531 58.089844 59.089844 58.089844 Z M 25 61.449219 C 24.449219 61.449219 24 61.898438 24 62.449219 C 24 63 24.449219 63.449219 25 63.449219 C 25.550781 63.449219 26 63 26 62.449219 C 26 61.898438 25.550781 61.449219 25 61.449219 Z M 55 61.449219 C 54.449219 61.449219 54 61.898438 54 62.449219 C 54 63 54.449219 63.449219 55 63.449219 C 55.550781 63.449219 56 63 56 62.449219 C 56 61.898438 55.550781 61.449219 55 61.449219 Z M 29.667969 63.945312 C 29.117188 63.945312 28.667969 64.394531 28.667969 64.945312 C 28.667969 65.496094 29.117188 65.945312 29.667969 65.945312 C 30.21875 65.945312 30.667969 65.496094 30.667969 64.945312 C 30.667969 64.394531 30.21875 63.945312 29.667969 63.945312 Z M 50.332031 63.945312 C 49.78125 63.945312 49.332031 64.394531 49.332031 64.945312 C 49.332031 65.496094 49.78125 65.945312 50.332031 65.945312 C 50.882812 65.945312 51.332031 65.496094 51.332031 64.945312 C 51.332031 64.394531 50.882812 63.945312 50.332031 63.945312 Z M 50.332031 63.945312 "/>
</g>
</svg>
