<?xml version="1.0" encoding="iso-8859-1"?>
<!-- Generator: Adobe Illustrator 16.0.0, SVG Export Plug-In . SVG Version: 6.00 Build 0)  -->
<!DOCTYPE svg PUBLIC "-//W3C//DTD SVG 1.1//EN" "http://www.w3.org/Graphics/SVG/1.1/DTD/svg11.dtd">
<svg version="1.1" id="Capa_1" xmlns="http://www.w3.org/2000/svg" xmlns:xlink="http://www.w3.org/1999/xlink" x="0px" y="0px"
	 width="31.691px" height="31.691px" viewBox="0 0 31.691 31.691" style="enable-background:new 0 0 31.691 31.691;"
	 xml:space="preserve">
<g>
	<g>
		<path d="M12.141,23.441c0.383-0.361,0.847-0.812,1.393-1.346c0.346-0.326,0.631-0.619,0.857-0.882
			c0.225-0.263,0.406-0.526,0.543-0.796c0.136-0.268,0.229-0.552,0.283-0.855c0.052-0.306,0.079-0.668,0.079-1.086
			c0-0.44-0.053-0.851-0.159-1.229c-0.104-0.378-0.287-0.705-0.55-0.982c-0.263-0.277-0.616-0.499-1.062-0.661
			c-0.446-0.162-1.005-0.245-1.676-0.245c-2.393,0-3.589,1.119-3.589,3.352v0.362h2.456c0-0.209,0.005-0.436,0.015-0.676
			c0.011-0.241,0.049-0.465,0.111-0.67c0.063-0.205,0.162-0.371,0.298-0.504c0.137-0.132,0.33-0.195,0.583-0.195
			c0.378,0,0.626,0.134,0.747,0.4c0.12,0.269,0.181,0.621,0.181,1.062c0,0.21-0.011,0.402-0.031,0.582
			c-0.021,0.179-0.094,0.376-0.22,0.59c-0.126,0.216-0.321,0.468-0.583,0.755c-0.262,0.29-0.629,0.644-1.101,1.063
			c-0.241,0.209-0.508,0.467-0.795,0.771c-0.288,0.306-0.562,0.661-0.818,1.07c-0.256,0.409-0.473,0.876-0.646,1.399
			c-0.171,0.525-0.258,1.117-0.258,1.778h7.111v-2.046h-3.949C11.497,24.143,11.757,23.803,12.141,23.441z"/>
		<path d="M20.928,19.2c-0.473,0-0.876,0.079-1.212,0.235c-0.335,0.157-0.593,0.404-0.771,0.74h-0.031
			c0-0.609,0.016-1.117,0.047-1.527c0.031-0.408,0.091-0.73,0.181-0.967c0.091-0.236,0.206-0.404,0.347-0.504
			c0.143-0.1,0.323-0.148,0.543-0.148c0.295,0,0.51,0.115,0.646,0.346c0.062,0.115,0.104,0.244,0.125,0.386s0.031,0.291,0.031,0.448
			h2.55c-0.021-1.007-0.317-1.732-0.89-2.179c-0.571-0.446-1.355-0.67-2.353-0.67c-0.903,0-1.61,0.135-2.125,0.402
			c-0.514,0.267-0.901,0.658-1.164,1.171c-0.262,0.515-0.424,1.14-0.487,1.873c-0.062,0.734-0.095,1.563-0.095,2.485
			c0,0.84,0.036,1.592,0.11,2.258c0.072,0.667,0.236,1.235,0.496,1.708c0.257,0.471,0.628,0.834,1.117,1.085
			c0.486,0.253,1.141,0.378,1.959,0.378c0.732,0,1.336-0.105,1.809-0.322c0.473-0.215,0.846-0.506,1.117-0.873
			s0.462-0.797,0.566-1.291c0.104-0.491,0.155-1.017,0.155-1.572c0-1.248-0.231-2.137-0.698-2.667
			C22.436,19.466,21.777,19.2,20.928,19.2z M20.756,24.543c-0.139,0.341-0.395,0.512-0.771,0.512c-0.389,0-0.647-0.188-0.779-0.565
			c-0.131-0.38-0.195-0.898-0.195-1.56c0-0.252,0.014-0.484,0.039-0.699s0.072-0.403,0.143-0.566
			c0.066-0.162,0.164-0.288,0.291-0.378c0.125-0.089,0.288-0.134,0.486-0.134c0.421,0,0.689,0.154,0.811,0.464
			s0.183,0.812,0.183,1.504C20.959,23.729,20.892,24.202,20.756,24.543z"/>
		<path d="M23.156,6.692l-6.57-5.591c0.037-0.093,0.061-0.194,0.061-0.301c0-0.441-0.358-0.8-0.8-0.8s-0.801,0.358-0.801,0.8
			c0,0.106,0.022,0.208,0.061,0.301L8.536,6.692h-8.19v25h31v-25H23.156z M23.386,28.307v1.854l-0.244,0.244H5.618
			c-0.543,0-0.983-0.441-0.983-0.983v-17.31h22.422v14.377l-0.244,0.242h-1.854C24.094,26.73,23.386,27.439,23.386,28.307z
			 M7.733,9.571c0-0.643,0.521-1.164,1.164-1.164c0.644,0,1.164,0.521,1.164,1.164s-0.521,1.163-1.164,1.163
			C8.254,10.734,7.733,10.214,7.733,9.571z M11.206,9.571c0-0.643,0.521-1.164,1.166-1.164c0.642,0,1.162,0.521,1.162,1.164
			s-0.521,1.163-1.162,1.163C11.728,10.734,11.206,10.214,11.206,9.571z M14.682,9.571c0-0.643,0.521-1.164,1.164-1.164
			c0.643,0,1.163,0.521,1.163,1.164s-0.521,1.163-1.163,1.163C15.203,10.734,14.682,10.214,14.682,9.571z M18.158,9.571
			c0-0.643,0.521-1.164,1.162-1.164c0.644,0,1.164,0.521,1.164,1.164s-0.521,1.163-1.164,1.163
			C18.678,10.734,18.158,10.214,18.158,9.571z M21.631,9.571c0-0.643,0.521-1.164,1.164-1.164s1.164,0.521,1.164,1.164
			s-0.521,1.163-1.164,1.163S21.631,10.214,21.631,9.571z M15.44,1.475c0.121,0.073,0.255,0.127,0.406,0.127
			s0.285-0.054,0.406-0.127l6.133,5.218H9.307L15.44,1.475z M1.346,7.692h2.531C3.615,8.049,3.455,8.487,3.455,8.963v20.456
			c0,0.478,0.16,0.914,0.422,1.272H1.346V7.692z M30.346,30.691h-5.825l3.716-3.715V8.964c0-0.477-0.16-0.914-0.422-1.271h2.531
			V30.691z"/>
	</g>
</g>
<g>
</g>
<g>
</g>
<g>
</g>
<g>
</g>
<g>
</g>
<g>
</g>
<g>
</g>
<g>
</g>
<g>
</g>
<g>
</g>
<g>
</g>
<g>
</g>
<g>
</g>
<g>
</g>
<g>
</g>
</svg>
